<?xml version="1.0" standalone="no"?>
<!DOCTYPE svg PUBLIC "-//W3C//DTD SVG 1.1//EN" "http://www.w3.org/Graphics/SVG/1.1/DTD/svg11.dtd">
<svg xmlns="http://www.w3.org/2000/svg" width="84" height="71" viewBox="0 0 84 71" fill="none">
<path d="M67.0862 27.3246C62.0213 27.3246 57.4555 30.3657 55.5185 35.0293C53.5815 39.6928 54.6551 45.06 58.2384 48.627C61.8216 52.1941 67.2086 53.2582 71.8864 51.323C76.5641 49.3877 79.611 44.8345 79.6056 39.7872C79.6056 36.4796 78.2861 33.3077 75.9379 30.9701C73.5897 28.6325 70.4053 27.3211 67.0862 27.3246Z" fill="url(#paint0_linear_13_17010)"/>
<path d="M82.7212 23.0378C82.6408 23.0379 82.564 23.0052 82.5084 22.9473C82.4529 22.8895 82.4235 22.8115 82.4272 22.7315V20.8939L81.6655 22.1456C81.6217 22.2188 81.5492 22.2705 81.4655 22.2882C81.3818 22.3058 81.2945 22.288 81.2246 22.2388C81.1803 22.2192 81.1431 22.1867 81.1177 22.1456L80.356 20.8939V22.6783C80.356 22.8106 80.2483 22.918 80.1155 22.918C79.9827 22.918 79.875 22.8106 79.875 22.6783V20.0017C79.8741 19.9201 79.9091 19.8422 79.9708 19.7884C80.0324 19.7347 80.1146 19.7104 80.1957 19.7221C80.3827 19.7221 80.4362 19.7221 80.5297 19.9352L81.4918 21.5331L82.4673 19.9352C82.523 19.8016 82.6563 19.7166 82.8013 19.7221C82.8816 19.7147 82.9613 19.7405 83.0219 19.7934C83.0825 19.8462 83.1187 19.9215 83.122 20.0017V22.7315C83.1294 22.8128 83.104 22.8937 83.0513 22.9562C82.9986 23.0187 82.9231 23.0577 82.8414 23.0644L82.7212 23.0378ZM78.2715 23.0378C78.1935 23.0343 78.1201 23.0001 78.0674 22.9427C78.0148 22.8852 77.9872 22.8092 77.9909 22.7315V20.308H77.2025C77.0552 20.3019 76.9352 20.188 76.9219 20.0417C76.9219 19.8873 77.0475 19.7621 77.2025 19.7621H79.2603C79.4153 19.7621 79.5409 19.8873 79.5409 20.0417C79.5409 20.1888 79.4213 20.308 79.2737 20.308H78.4986V22.7315C78.5036 22.8738 78.4094 23.0007 78.2715 23.0378Z" fill="#101010"/>
<path d="M67.0886 56.5246C57.7944 56.4877 50.2886 48.9522 50.3204 39.6903C50.3525 30.4284 57.9102 22.9445 67.2044 22.9714C76.4986 22.9984 84.0125 30.5259 83.9905 39.7878C83.9799 44.2419 82.1923 48.5089 79.0218 51.6484C75.8513 54.7879 71.5582 56.5421 67.0886 56.5246ZM67.0886 27.232C62.0238 27.232 57.4579 30.2731 55.5209 34.9367C53.5839 39.6002 54.6575 44.9674 58.2408 48.5344C61.8241 52.1015 67.2111 53.1656 71.8888 51.2303C76.5666 49.2951 79.6134 44.7418 79.608 39.6946C79.5566 32.8429 73.9643 27.3177 67.0886 27.3252V27.232Z" fill="#101010"/>
<path d="M44.8159 53.1954V2.66591C44.9404 1.81458 44.5839 0.964195 43.8888 0.453988C43.1937 -0.0562193 42.273 -0.143221 41.4941 0.227689C40.7151 0.598599 40.2046 1.36706 40.1663 2.22653C40.1529 2.37269 40.1529 2.51975 40.1663 2.66591V53.262C40.1109 54.5023 41.0411 55.568 42.2814 55.6852C43.5217 55.8024 44.6364 54.9299 44.8159 53.7014C44.8337 53.5332 44.8337 53.3636 44.8159 53.1954Z" fill="#101010"/>
<path d="M33.7255 39.7876C33.7402 31.6853 27.9507 24.7264 19.9583 23.2394C11.9658 21.7525 4.04679 26.161 1.12688 33.7228C-1.79303 41.2846 1.11786 49.8459 8.04894 54.0816C14.98 58.3172 23.9572 57.0208 29.3965 50.9986V53.2355C29.4285 56.557 28.1314 59.7545 25.7921 62.1207C23.4527 64.4869 20.2638 65.827 16.9305 65.8446C16.1191 65.7809 15.3404 66.1762 14.9151 66.8678C14.4898 67.5594 14.4898 68.4303 14.9151 69.1219C15.3404 69.8135 16.1191 70.2089 16.9305 70.1452C26.2304 70.1379 33.7656 62.6229 33.7656 53.3553L33.7255 39.7876ZM16.8905 52.2635C11.8256 52.2689 7.25651 49.2326 5.31453 44.5711C3.37256 39.9096 4.44036 34.5413 8.01983 30.9705C11.5993 27.3996 16.9852 26.3298 21.665 28.2601C26.3448 30.1903 29.3965 34.7403 29.3965 39.7876C29.4 43.0952 28.084 46.2685 25.7383 48.6086C23.3926 50.9487 20.2096 52.2635 16.8905 52.2635Z" fill="#101010"/>
<defs>
<linearGradient id="paint0_linear_13_17010" x1="60.0181" y1="45.1797" x2="75.5839" y2="33.2507" gradientUnits="userSpaceOnUse">
<stop stop-color="#EE4823"/>
<stop offset="0.17" stop-color="#EF4F22"/>
<stop offset="0.42" stop-color="#F16121"/>
<stop offset="0.7" stop-color="#F57F1E"/>
<stop offset="1" stop-color="#FAA61A"/>
</linearGradient>
</defs>
</svg>