<svg xmlns="http://www.w3.org/2000/svg" xmlns:xlink="http://www.w3.org/1999/xlink" width="380" zoomAndPan="magnify" viewBox="0 0 285 197.999996" height="264" preserveAspectRatio="xMidYMid meet" version="1.0"><defs><g/><clipPath id="a828e09826"><path d="M 10 0.121094 L 60 0.121094 L 60 97 L 10 97 Z M 10 0.121094 " clip-rule="nonzero"/></clipPath><clipPath id="07ed6e9b74"><rect x="0" width="50" y="0" height="97"/></clipPath><clipPath id="c306afcbf5"><rect x="0" width="49" y="0" height="97"/></clipPath><clipPath id="c668d3b9bf"><rect x="0" width="176" y="0" height="47"/></clipPath><clipPath id="20a9e7fed6"><path d="M 69 69 L 239.398438 69 L 239.398438 99 L 69 99 Z M 69 69 " clip-rule="nonzero"/></clipPath><clipPath id="f8285bb0af"><rect x="0" width="171" y="0" height="30"/></clipPath><clipPath id="acf733129d"><path d="M 67 27 L 97.71875 27 L 97.71875 70 L 67 70 Z M 67 27 " clip-rule="nonzero"/></clipPath><clipPath id="1c3aad088d"><rect x="0" width="98" y="0" height="95"/></clipPath><clipPath id="c39f3e4e86"><path d="M 0.839844 59 L 49 59 L 49 165.71875 L 0.839844 165.71875 Z M 0.839844 59 " clip-rule="nonzero"/></clipPath><clipPath id="04f2336cba"><rect x="0" width="49" y="0" height="107"/></clipPath><clipPath id="4f2ea4093e"><rect x="0" width="240" y="0" height="166"/></clipPath></defs><g transform="matrix(1, 0, 0, 1, 33, 15)"><g clip-path="url(#4f2ea4093e)"><g clip-path="url(#a828e09826)"><g transform="matrix(1, 0, 0, 1, 10, 0)"><g clip-path="url(#07ed6e9b74)"><g fill="#043d89" fill-opacity="1"><g transform="translate(1.040583, 67.113462)"><g><path d="M 18.125 0 L 18.125 -41.78125 L 0.828125 -41.78125 L 0.828125 -51.40625 L 46.984375 -51.40625 L 46.984375 -41.78125 L 29.6875 -41.78125 L 29.6875 0 Z M 18.125 0 "/></g></g></g></g></g></g><g transform="matrix(1, 0, 0, 1, 26, 26)"><g clip-path="url(#c306afcbf5)"><g fill="#043d89" fill-opacity="1"><g transform="translate(0.204524, 67.603601)"><g><path d="M 24.734375 1.40625 C 21.929688 1.40625 19.253906 1.082031 16.703125 0.4375 C 14.160156 -0.207031 11.859375 -1.164062 9.796875 -2.4375 C 7.742188 -3.707031 6.015625 -5.28125 4.609375 -7.15625 C 3.210938 -9.039062 2.265625 -11.210938 1.765625 -13.671875 L 10.296875 -17.265625 L 10.546875 -17.1875 C 11.335938 -14.007812 12.972656 -11.640625 15.453125 -10.078125 C 17.929688 -8.523438 20.953125 -7.75 24.515625 -7.75 C 26.910156 -7.75 28.804688 -8.066406 30.203125 -8.703125 C 31.609375 -9.335938 32.613281 -10.140625 33.21875 -11.109375 C 33.832031 -12.078125 34.140625 -13.066406 34.140625 -14.078125 C 34.140625 -15.390625 33.796875 -16.445312 33.109375 -17.25 C 32.429688 -18.050781 31.421875 -18.742188 30.078125 -19.328125 C 28.742188 -19.910156 27.101562 -20.515625 25.15625 -21.140625 L 17.375 -23.265625 C 12.925781 -24.597656 9.519531 -26.46875 7.15625 -28.875 C 4.800781 -31.28125 3.625 -34.421875 3.625 -38.296875 C 3.625 -41.460938 4.441406 -44.117188 6.078125 -46.265625 C 7.722656 -48.421875 10.039062 -50.046875 13.03125 -51.140625 C 16.019531 -52.242188 19.550781 -52.796875 23.625 -52.796875 C 29.25 -52.796875 33.804688 -51.582031 37.296875 -49.15625 C 40.785156 -46.726562 43.265625 -43.191406 44.734375 -38.546875 L 35.828125 -35.5 L 35.53125 -35.578125 C 35.125 -37.316406 34.484375 -38.722656 33.609375 -39.796875 C 32.742188 -40.878906 31.753906 -41.707031 30.640625 -42.28125 C 29.523438 -42.851562 28.378906 -43.238281 27.203125 -43.4375 C 26.035156 -43.644531 24.945312 -43.75 23.9375 -43.75 C 21.738281 -43.75 19.953125 -43.476562 18.578125 -42.9375 C 17.203125 -42.40625 16.203125 -41.71875 15.578125 -40.875 C 14.953125 -40.039062 14.640625 -39.171875 14.640625 -38.265625 C 14.640625 -36.972656 14.976562 -35.929688 15.65625 -35.140625 C 16.34375 -34.347656 17.238281 -33.707031 18.34375 -33.21875 C 19.445312 -32.726562 20.617188 -32.28125 21.859375 -31.875 L 30.40625 -29.65625 C 32.84375 -28.882812 35.003906 -28.054688 36.890625 -27.171875 C 38.785156 -26.285156 40.375 -25.257812 41.65625 -24.09375 C 42.9375 -22.9375 43.90625 -21.570312 44.5625 -20 C 45.21875 -18.4375 45.546875 -16.582031 45.546875 -14.4375 C 45.546875 -12.132812 45.070312 -10.015625 44.125 -8.078125 C 43.1875 -6.140625 41.816406 -4.460938 40.015625 -3.046875 C 38.222656 -1.640625 36.039062 -0.546875 33.46875 0.234375 C 30.894531 1.015625 27.984375 1.40625 24.734375 1.40625 Z M 24.734375 1.40625 "/></g></g></g></g></g><g transform="matrix(1, 0, 0, 1, 59, 8)"><g clip-path="url(#c668d3b9bf)"><g fill="#043d89" fill-opacity="1"><g transform="translate(1.442936, 32.592)"><g><path d="M 20.375 0 L 18.5625 -5.125 L 7.765625 -5.125 L 5.953125 0 L 0.34375 0 L 9.890625 -24.421875 L 16.671875 -24.421875 L 26.1875 0 Z M 9.3125 -9.515625 L 16.984375 -9.515625 L 13.15625 -20.390625 Z M 9.3125 -9.515625 "/></g></g></g><g fill="#043d89" fill-opacity="1"><g transform="translate(27.978569, 32.592)"><g><path d="M 2.609375 0 L 2.609375 -24.421875 L 15.1875 -24.421875 C 17.820312 -24.421875 19.851562 -23.910156 21.28125 -22.890625 C 22.707031 -21.867188 23.421875 -20.328125 23.421875 -18.265625 C 23.421875 -17.441406 23.269531 -16.707031 22.96875 -16.0625 C 22.675781 -15.425781 22.273438 -14.890625 21.765625 -14.453125 C 21.253906 -14.015625 20.675781 -13.664062 20.03125 -13.40625 C 19.382812 -13.15625 18.703125 -12.984375 17.984375 -12.890625 L 17.984375 -12.71875 C 18.765625 -12.65625 19.519531 -12.492188 20.25 -12.234375 C 20.976562 -11.984375 21.632812 -11.625 22.21875 -11.15625 C 22.800781 -10.695312 23.265625 -10.125 23.609375 -9.4375 C 23.953125 -8.75 24.125 -7.945312 24.125 -7.03125 C 24.125 -5.59375 23.8125 -4.347656 23.1875 -3.296875 C 22.5625 -2.242188 21.585938 -1.429688 20.265625 -0.859375 C 18.953125 -0.285156 17.253906 0 15.171875 0 Z M 7.9375 -14.234375 L 14.109375 -14.234375 C 14.804688 -14.234375 15.421875 -14.332031 15.953125 -14.53125 C 16.492188 -14.738281 16.921875 -15.078125 17.234375 -15.546875 C 17.554688 -16.015625 17.71875 -16.65625 17.71875 -17.46875 C 17.71875 -18.257812 17.554688 -18.882812 17.234375 -19.34375 C 16.910156 -19.800781 16.46875 -20.128906 15.90625 -20.328125 C 15.351562 -20.523438 14.71875 -20.625 14 -20.625 L 7.9375 -20.625 Z M 7.9375 -3.78125 L 13.796875 -3.78125 C 14.722656 -3.78125 15.53125 -3.875 16.21875 -4.0625 C 16.90625 -4.25 17.4375 -4.601562 17.8125 -5.125 C 18.1875 -5.644531 18.375 -6.394531 18.375 -7.375 C 18.375 -8.28125 18.191406 -8.984375 17.828125 -9.484375 C 17.472656 -9.992188 16.976562 -10.347656 16.34375 -10.546875 C 15.71875 -10.742188 14.988281 -10.84375 14.15625 -10.84375 L 7.9375 -10.84375 Z M 7.9375 -3.78125 "/></g></g></g><g fill="#043d89" fill-opacity="1"><g transform="translate(53.286331, 32.592)"><g><path d="M 20.375 0 L 18.5625 -5.125 L 7.765625 -5.125 L 5.953125 0 L 0.34375 0 L 9.890625 -24.421875 L 16.671875 -24.421875 L 26.1875 0 Z M 9.3125 -9.515625 L 16.984375 -9.515625 L 13.15625 -20.390625 Z M 9.3125 -9.515625 "/></g></g></g><g fill="#043d89" fill-opacity="1"><g transform="translate(78.627894, 32.592)"><g><path d="M 13.671875 0.671875 C 11.023438 0.671875 8.757812 0.160156 6.875 -0.859375 C 5 -1.890625 3.5625 -3.363281 2.5625 -5.28125 C 1.5625 -7.207031 1.0625 -9.507812 1.0625 -12.1875 C 1.0625 -14.875 1.554688 -17.179688 2.546875 -19.109375 C 3.535156 -21.035156 4.957031 -22.515625 6.8125 -23.546875 C 8.675781 -24.578125 10.914062 -25.09375 13.53125 -25.09375 C 15.132812 -25.09375 16.625 -24.863281 18 -24.40625 C 19.382812 -23.945312 20.601562 -23.265625 21.65625 -22.359375 C 22.707031 -21.453125 23.539062 -20.335938 24.15625 -19.015625 C 24.769531 -17.691406 25.109375 -16.171875 25.171875 -14.453125 L 20.09375 -13.4375 L 19.9375 -13.546875 C 19.851562 -14.828125 19.617188 -15.90625 19.234375 -16.78125 C 18.847656 -17.664062 18.359375 -18.378906 17.765625 -18.921875 C 17.179688 -19.460938 16.519531 -19.851562 15.78125 -20.09375 C 15.050781 -20.34375 14.296875 -20.46875 13.515625 -20.46875 C 12.128906 -20.46875 10.929688 -20.148438 9.921875 -19.515625 C 8.921875 -18.890625 8.148438 -17.953125 7.609375 -16.703125 C 7.078125 -15.460938 6.8125 -13.914062 6.8125 -12.0625 C 6.8125 -10.300781 7.09375 -8.816406 7.65625 -7.609375 C 8.226562 -6.398438 9.046875 -5.488281 10.109375 -4.875 C 11.171875 -4.257812 12.4375 -3.953125 13.90625 -3.953125 C 14.914062 -3.953125 15.847656 -4.125 16.703125 -4.46875 C 17.566406 -4.820312 18.316406 -5.351562 18.953125 -6.0625 C 19.585938 -6.769531 20.0625 -7.671875 20.375 -8.765625 L 25.296875 -7.328125 C 24.984375 -6.171875 24.492188 -5.101562 23.828125 -4.125 C 23.171875 -3.15625 22.347656 -2.3125 21.359375 -1.59375 C 20.378906 -0.882812 19.242188 -0.332031 17.953125 0.0625 C 16.660156 0.46875 15.234375 0.671875 13.671875 0.671875 Z M 13.671875 0.671875 "/></g></g></g><g fill="#043d89" fill-opacity="1"><g transform="translate(104.805397, 32.592)"><g><path d="M 13.671875 0.671875 C 11.023438 0.671875 8.757812 0.160156 6.875 -0.859375 C 5 -1.890625 3.5625 -3.363281 2.5625 -5.28125 C 1.5625 -7.207031 1.0625 -9.507812 1.0625 -12.1875 C 1.0625 -14.875 1.554688 -17.179688 2.546875 -19.109375 C 3.535156 -21.035156 4.957031 -22.515625 6.8125 -23.546875 C 8.675781 -24.578125 10.914062 -25.09375 13.53125 -25.09375 C 15.132812 -25.09375 16.625 -24.863281 18 -24.40625 C 19.382812 -23.945312 20.601562 -23.265625 21.65625 -22.359375 C 22.707031 -21.453125 23.539062 -20.335938 24.15625 -19.015625 C 24.769531 -17.691406 25.109375 -16.171875 25.171875 -14.453125 L 20.09375 -13.4375 L 19.9375 -13.546875 C 19.851562 -14.828125 19.617188 -15.90625 19.234375 -16.78125 C 18.847656 -17.664062 18.359375 -18.378906 17.765625 -18.921875 C 17.179688 -19.460938 16.519531 -19.851562 15.78125 -20.09375 C 15.050781 -20.34375 14.296875 -20.46875 13.515625 -20.46875 C 12.128906 -20.46875 10.929688 -20.148438 9.921875 -19.515625 C 8.921875 -18.890625 8.148438 -17.953125 7.609375 -16.703125 C 7.078125 -15.460938 6.8125 -13.914062 6.8125 -12.0625 C 6.8125 -10.300781 7.09375 -8.816406 7.65625 -7.609375 C 8.226562 -6.398438 9.046875 -5.488281 10.109375 -4.875 C 11.171875 -4.257812 12.4375 -3.953125 13.90625 -3.953125 C 14.914062 -3.953125 15.847656 -4.125 16.703125 -4.46875 C 17.566406 -4.820312 18.316406 -5.351562 18.953125 -6.0625 C 19.585938 -6.769531 20.0625 -7.671875 20.375 -8.765625 L 25.296875 -7.328125 C 24.984375 -6.171875 24.492188 -5.101562 23.828125 -4.125 C 23.171875 -3.15625 22.347656 -2.3125 21.359375 -1.59375 C 20.378906 -0.882812 19.242188 -0.332031 17.953125 0.0625 C 16.660156 0.46875 15.234375 0.671875 13.671875 0.671875 Z M 13.671875 0.671875 "/></g></g></g><g fill="#043d89" fill-opacity="1"><g transform="translate(130.9829, 32.592)"><g><path d="M 2.609375 0 L 2.609375 -24.421875 L 8.125 -24.421875 L 8.125 -14.640625 L 19.453125 -14.640625 L 19.453125 -24.421875 L 24.9375 -24.421875 L 24.9375 0 L 19.453125 0 L 19.453125 -10.09375 L 8.125 -10.09375 L 8.125 0 Z M 2.609375 0 "/></g></g></g><g fill="#043d89" fill-opacity="1"><g transform="translate(158.524704, 32.592)"><g><path d="M 14.8125 -20.125 L 10.859375 -20.125 L 10.859375 -4.296875 L 14.8125 -4.296875 L 14.8125 0 L 1.484375 0 L 1.484375 -4.296875 L 5.359375 -4.296875 L 5.359375 -20.125 L 1.484375 -20.125 L 1.484375 -24.421875 L 14.8125 -24.421875 Z M 14.8125 -20.125 "/></g></g></g></g></g><g clip-path="url(#20a9e7fed6)"><g transform="matrix(1, 0, 0, 1, 69, 69)"><g clip-path="url(#f8285bb0af)"><g fill="#043d89" fill-opacity="1"><g transform="translate(1.300318, 20.914519)"><g><path d="M 13.015625 0 L 11.859375 -3.265625 L 4.953125 -3.265625 L 3.8125 0 L 0.21875 0 L 6.328125 -15.609375 L 10.65625 -15.609375 L 16.734375 0 Z M 5.953125 -6.078125 L 10.859375 -6.078125 L 8.40625 -13.03125 Z M 5.953125 -6.078125 "/></g></g></g><g fill="#043d89" fill-opacity="1"><g transform="translate(18.263767, 20.914519)"><g><path d="M 1.671875 0 L 1.671875 -15.609375 L 5.265625 -15.609375 L 12.140625 -5.875 L 13 -4.53125 L 12.84375 -6.109375 L 12.84375 -15.609375 L 15.96875 -15.609375 L 15.96875 0 L 12.421875 0 L 5.5 -9.71875 L 4.640625 -11.0625 L 4.78125 -9.484375 L 4.78125 0 Z M 1.671875 0 "/></g></g></g><g fill="#043d89" fill-opacity="1"><g transform="translate(35.946747, 20.914519)"><g/></g></g><g fill="#043d89" fill-opacity="1"><g transform="translate(42.03004, 20.914519)"><g><path d="M 8.734375 0.421875 C 7.046875 0.421875 5.597656 0.0976562 4.390625 -0.546875 C 3.191406 -1.203125 2.269531 -2.144531 1.625 -3.375 C 0.988281 -4.601562 0.671875 -6.070312 0.671875 -7.78125 C 0.671875 -9.507812 0.988281 -10.988281 1.625 -12.21875 C 2.257812 -13.445312 3.171875 -14.390625 4.359375 -15.046875 C 5.546875 -15.703125 6.972656 -16.03125 8.640625 -16.03125 C 9.671875 -16.03125 10.625 -15.882812 11.5 -15.59375 C 12.382812 -15.300781 13.160156 -14.863281 13.828125 -14.28125 C 14.503906 -13.707031 15.039062 -12.992188 15.4375 -12.140625 C 15.832031 -11.296875 16.050781 -10.328125 16.09375 -9.234375 L 12.84375 -8.59375 L 12.75 -8.65625 C 12.6875 -9.476562 12.53125 -10.171875 12.28125 -10.734375 C 12.039062 -11.296875 11.734375 -11.75 11.359375 -12.09375 C 10.984375 -12.4375 10.5625 -12.6875 10.09375 -12.84375 C 9.625 -13 9.140625 -13.078125 8.640625 -13.078125 C 7.742188 -13.078125 6.976562 -12.875 6.34375 -12.46875 C 5.707031 -12.070312 5.210938 -11.472656 4.859375 -10.671875 C 4.515625 -9.878906 4.34375 -8.890625 4.34375 -7.703125 C 4.34375 -6.578125 4.523438 -5.628906 4.890625 -4.859375 C 5.253906 -4.085938 5.773438 -3.503906 6.453125 -3.109375 C 7.140625 -2.722656 7.953125 -2.53125 8.890625 -2.53125 C 9.535156 -2.53125 10.128906 -2.640625 10.671875 -2.859375 C 11.222656 -3.078125 11.703125 -3.414062 12.109375 -3.875 C 12.515625 -4.332031 12.816406 -4.910156 13.015625 -5.609375 L 16.171875 -4.6875 C 15.960938 -3.945312 15.644531 -3.265625 15.21875 -2.640625 C 14.800781 -2.023438 14.28125 -1.488281 13.65625 -1.03125 C 13.03125 -0.570312 12.300781 -0.21875 11.46875 0.03125 C 10.644531 0.289062 9.734375 0.421875 8.734375 0.421875 Z M 8.734375 0.421875 "/></g></g></g><g fill="#043d89" fill-opacity="1"><g transform="translate(58.764553, 20.914519)"><g><path d="M 1.671875 0.015625 L 1.671875 -15.59375 L 5.1875 -15.59375 L 5.1875 -2.921875 L 13.40625 -2.921875 L 13.40625 0.015625 Z M 1.671875 0.015625 "/></g></g></g><g fill="#043d89" fill-opacity="1"><g transform="translate(72.642753, 20.914519)"><g><path d="M 1.671875 0 L 1.671875 -15.609375 L 13.65625 -15.609375 L 13.65625 -12.8125 L 5.1875 -12.8125 L 5.1875 -9.21875 L 12.15625 -9.21875 L 12.15625 -6.65625 L 5.1875 -6.65625 L 5.1875 -2.796875 L 13.84375 -2.796875 L 13.84375 0 Z M 1.671875 0 "/></g></g></g><g fill="#043d89" fill-opacity="1"><g transform="translate(87.218678, 20.914519)"><g><path d="M 1.671875 0 L 1.671875 -15.609375 L 6.171875 -15.609375 L 9.921875 -6 L 10.546875 -3.703125 L 11.203125 -6 L 14.9375 -15.609375 L 19.4375 -15.609375 L 19.4375 0 L 16.140625 0 L 16.140625 -9.859375 L 16.21875 -11.796875 L 15.546875 -9.890625 L 11.8125 0 L 9.0625 0 L 5.328125 -9.859375 L 4.671875 -11.828125 L 4.734375 -9.875 L 4.734375 0 Z M 1.671875 0 "/></g></g></g><g fill="#043d89" fill-opacity="1"><g transform="translate(108.379387, 20.914519)"><g><path d="M 1.671875 0 L 1.671875 -15.609375 L 13.65625 -15.609375 L 13.65625 -12.8125 L 5.1875 -12.8125 L 5.1875 -9.21875 L 12.15625 -9.21875 L 12.15625 -6.65625 L 5.1875 -6.65625 L 5.1875 -2.796875 L 13.84375 -2.796875 L 13.84375 0 Z M 1.671875 0 "/></g></g></g><g fill="#043d89" fill-opacity="1"><g transform="translate(122.955312, 20.914519)"><g><path d="M 1.671875 0 L 1.671875 -15.609375 L 5.265625 -15.609375 L 12.140625 -5.875 L 13 -4.53125 L 12.84375 -6.109375 L 12.84375 -15.609375 L 15.96875 -15.609375 L 15.96875 0 L 12.421875 0 L 5.5 -9.71875 L 4.640625 -11.0625 L 4.78125 -9.484375 L 4.78125 0 Z M 1.671875 0 "/></g></g></g><g fill="#043d89" fill-opacity="1"><g transform="translate(140.638291, 20.914519)"><g><path d="M 5.5 0 L 5.5 -12.6875 L 0.25 -12.6875 L 0.25 -15.609375 L 14.265625 -15.609375 L 14.265625 -12.6875 L 9.015625 -12.6875 L 9.015625 0 Z M 5.5 0 "/></g></g></g><g fill="#043d89" fill-opacity="1"><g transform="translate(155.159702, 20.914519)"><g><path d="M 1.671875 0 L 1.671875 -15.609375 L 13.65625 -15.609375 L 13.65625 -12.8125 L 5.1875 -12.8125 L 5.1875 -9.21875 L 12.15625 -9.21875 L 12.15625 -6.65625 L 5.1875 -6.65625 L 5.1875 -2.796875 L 13.84375 -2.796875 L 13.84375 0 Z M 1.671875 0 "/></g></g></g></g></g></g><g transform="matrix(1, 0, 0, 1, 32, 70)"><g clip-path="url(#1c3aad088d)"><g fill="#8d6331" fill-opacity="1"><g transform="translate(0.114457, 67.421843)"><g><path d="M 7.898438 2.292969 C 11.976562 2.292969 16.753906 -9.425781 19.554688 -12.929688 L 20.066406 -12.804688 C 19.363281 -10.957031 18.535156 -8.535156 18.535156 -5.734375 C 18.535156 -1.71875 21.082031 0 22.675781 0 C 25.351562 0 30.445312 -4.839844 36.6875 -15.222656 C 36.6875 -16.117188 35.542969 -16.878906 34.90625 -16.878906 C 29.617188 -9.109375 26.816406 -6.179688 24.839844 -6.179688 C 24.203125 -6.179688 23.949219 -6.625 23.949219 -7.453125 C 23.949219 -10 26.496094 -15.289062 27.199219 -15.414062 C 27.324219 -15.542969 27.390625 -15.734375 27.390625 -15.988281 C 27.390625 -17.324219 24.96875 -19.171875 22.675781 -19.171875 C 19.554688 -19.171875 10.957031 -3.566406 8.917969 -3.566406 C 8.535156 -3.566406 8.21875 -3.820312 8.21875 -4.839844 C 8.21875 -9.683594 15.222656 -24.015625 22.101562 -24.015625 C 24.078125 -24.015625 25.480469 -23.25 25.414062 -20.382812 C 27.070312 -20.636719 27.773438 -21.71875 27.773438 -22.996094 C 27.773438 -25.351562 23.695312 -28.410156 20.253906 -28.410156 C 12.546875 -28.410156 1.785156 -13.632812 1.785156 -4.96875 C 1.785156 -1.273438 4.777344 2.292969 7.898438 2.292969 Z M 7.898438 2.292969 "/></g></g></g><g fill="#8d6331" fill-opacity="1"><g transform="translate(28.331695, 67.421843)"><g><path d="M 20.445312 -37.390625 C 18.597656 -37.390625 13.121094 -29.683594 8.28125 -20.382812 C 6.75 -20.320312 5.476562 -20.253906 4.839844 -20.253906 C 4.523438 -19.808594 4.457031 -19.363281 4.457031 -18.917969 C 4.457031 -17.769531 5.222656 -16.878906 6.496094 -16.816406 C 2.738281 -9.109375 -0.253906 -0.828125 -0.253906 4.585938 C -0.253906 9.046875 2.613281 12.804688 5.988281 12.804688 C 11.71875 12.804688 16.304688 -1.71875 16.304688 -11.148438 C 16.304688 -13.503906 15.988281 -15.605469 15.414062 -17.199219 C 16.5625 -17.261719 17.769531 -17.261719 18.855469 -17.261719 C 20.253906 -17.261719 21.53125 -17.261719 22.359375 -17.132812 C 22.484375 -17.324219 22.675781 -17.707031 22.675781 -18.152344 C 22.675781 -19.363281 21.910156 -20.828125 19.425781 -20.828125 C 18.28125 -20.828125 16.5625 -20.765625 14.714844 -20.703125 C 17.835938 -26.5625 21.273438 -31.464844 24.332031 -33.632812 C 24.585938 -33.824219 24.714844 -34.015625 24.714844 -34.332031 C 24.714844 -35.605469 22.546875 -37.390625 20.445312 -37.390625 Z M 13.441406 -13.757812 C 13.441406 -5.796875 9.046875 8.34375 6.304688 8.34375 C 5.734375 8.34375 5.476562 7.769531 5.476562 6.625 C 5.476562 1.210938 8.664062 -8.472656 12.867188 -17.070312 C 12.929688 -17.070312 12.996094 -17.070312 13.058594 -17.132812 C 13.3125 -16.179688 13.441406 -15.03125 13.441406 -13.757812 Z M 13.441406 -13.757812 "/></g></g></g><g fill="#8d6331" fill-opacity="1"><g transform="translate(46.930872, 67.421843)"><g><path d="M 20.445312 -37.390625 C 18.597656 -37.390625 13.121094 -29.683594 8.28125 -20.382812 C 6.75 -20.320312 5.476562 -20.253906 4.839844 -20.253906 C 4.523438 -19.808594 4.457031 -19.363281 4.457031 -18.917969 C 4.457031 -17.769531 5.222656 -16.878906 6.496094 -16.816406 C 2.738281 -9.109375 -0.253906 -0.828125 -0.253906 4.585938 C -0.253906 9.046875 2.613281 12.804688 5.988281 12.804688 C 11.71875 12.804688 16.304688 -1.71875 16.304688 -11.148438 C 16.304688 -13.503906 15.988281 -15.605469 15.414062 -17.199219 C 16.5625 -17.261719 17.769531 -17.261719 18.855469 -17.261719 C 20.253906 -17.261719 21.53125 -17.261719 22.359375 -17.132812 C 22.484375 -17.324219 22.675781 -17.707031 22.675781 -18.152344 C 22.675781 -19.363281 21.910156 -20.828125 19.425781 -20.828125 C 18.28125 -20.828125 16.5625 -20.765625 14.714844 -20.703125 C 17.835938 -26.5625 21.273438 -31.464844 24.332031 -33.632812 C 24.585938 -33.824219 24.714844 -34.015625 24.714844 -34.332031 C 24.714844 -35.605469 22.546875 -37.390625 20.445312 -37.390625 Z M 13.441406 -13.757812 C 13.441406 -5.796875 9.046875 8.34375 6.304688 8.34375 C 5.734375 8.34375 5.476562 7.769531 5.476562 6.625 C 5.476562 1.210938 8.664062 -8.472656 12.867188 -17.070312 C 12.929688 -17.070312 12.996094 -17.070312 13.058594 -17.132812 C 13.3125 -16.179688 13.441406 -15.03125 13.441406 -13.757812 Z M 13.441406 -13.757812 "/></g></g></g><g clip-path="url(#acf733129d)"><g fill="#8d6331" fill-opacity="1"><g transform="translate(65.530048, 67.421843)"><g><path d="M 24.714844 -31.210938 C 25.734375 -31.210938 26.625 -31.914062 26.625 -32.613281 C 25.925781 -33.058594 21.148438 -35.863281 18.664062 -39.875 C 17.453125 -39.875 15.542969 -38.535156 15.542969 -37.328125 C 15.542969 -34.332031 22.484375 -31.210938 24.714844 -31.210938 Z M 29.808594 -16.878906 C 23.695312 -7.835938 15.667969 -2.675781 11.273438 -2.675781 C 9.171875 -2.675781 8.28125 -4.011719 8.28125 -5.734375 L 8.28125 -5.921875 C 15.925781 -8.152344 25.03125 -17.390625 25.03125 -22.675781 C 25.03125 -25.542969 22.359375 -28.152344 19.171875 -28.152344 C 11.65625 -28.152344 1.910156 -13.632812 1.910156 -5.921875 C 1.910156 -1.273438 5.542969 2.101562 10.128906 2.101562 C 15.925781 2.101562 23.058594 -2.546875 31.59375 -15.222656 C 31.59375 -16.117188 30.445312 -16.878906 29.808594 -16.878906 Z M 20.382812 -23.824219 C 21.148438 -23.824219 21.464844 -23.441406 21.464844 -22.738281 C 21.464844 -19.617188 14.203125 -11.082031 8.917969 -9.171875 C 10.828125 -15.414062 16.945312 -23.824219 20.382812 -23.824219 Z M 20.382812 -23.824219 "/></g></g></g></g></g></g><g clip-path="url(#c39f3e4e86)"><g transform="matrix(1, 0, 0, 1, 0.000000000000007105, 59)"><g clip-path="url(#04f2336cba)"><g fill="#8d6331" fill-opacity="1"><g transform="translate(0.972249, 76.36379)"><g><path d="M 16.941406 4.574219 C 27.160156 4.574219 38.097656 -6.003906 45.460938 -17.082031 C 45.460938 -18.085938 44.175781 -18.941406 43.460938 -18.941406 C 36.097656 -8.507812 26.375 -1.214844 17.296875 -1.214844 C 12.292969 -1.214844 10.148438 -3.574219 10.148438 -7.863281 C 10.148438 -21.65625 26.875 -41.457031 35.382812 -41.457031 C 37.242188 -41.457031 38.382812 -40.386719 38.382812 -38.382812 C 38.382812 -34.09375 32.953125 -26.949219 29.164062 -24.804688 C 30.164062 -24.160156 31.308594 -23.875 32.523438 -23.875 C 37.957031 -23.875 44.175781 -30.09375 44.175781 -36.167969 C 44.175781 -42.242188 38.027344 -45.746094 32.808594 -45.746094 C 19.941406 -45.746094 2.929688 -24.230469 2.929688 -9.792969 C 2.929688 -1.214844 9.363281 4.574219 16.941406 4.574219 Z M 16.941406 4.574219 "/></g></g></g></g></g></g></g></g></svg>