<svg xmlns="http://www.w3.org/2000/svg" xmlns:xlink="http://www.w3.org/1999/xlink" width="1024" zoomAndPan="magnify" viewBox="0 0 768 767.999994" height="1024" preserveAspectRatio="xMidYMid meet" version="1.0"><defs><g/><clipPath id="879e72235a"><rect x="0" width="266" y="0" height="504"/></clipPath><clipPath id="ad0690d1f1"><rect x="0" width="267" y="0" height="532"/></clipPath><clipPath id="19ff92dfaa"><rect x="0" width="265" y="0" height="467"/></clipPath></defs><g transform="matrix(1, 0, 0, 1, 252, -0.000000000000057351)"><g clip-path="url(#879e72235a)"><g fill="#ffffff" fill-opacity="1"><g transform="translate(0.0608418, 341.185533)"><g><path d="M 99.96875 0 L 99.96875 -230.421875 L 4.546875 -230.421875 L 4.546875 -283.46875 L 259.125 -283.46875 L 259.125 -230.421875 L 163.703125 -230.421875 L 163.703125 0 Z M 99.96875 0 "/></g></g></g></g></g><g transform="matrix(1, 0, 0, 1, 335, 118)"><g clip-path="url(#ad0690d1f1)"><g fill="#ffffff" fill-opacity="1"><g transform="translate(1.05428, 369.261327)"><g><path d="M 136.390625 7.71875 C 120.953125 7.71875 106.203125 5.9375 92.140625 2.375 C 78.085938 -1.1875 65.382812 -6.460938 54.03125 -13.453125 C 42.6875 -20.453125 33.15625 -29.128906 25.4375 -39.484375 C 17.71875 -49.847656 12.472656 -61.828125 9.703125 -75.421875 L 56.8125 -95.21875 L 58.203125 -94.8125 C 62.554688 -77.257812 71.5625 -64.191406 85.21875 -55.609375 C 98.875 -47.035156 115.535156 -42.75 135.203125 -42.75 C 148.398438 -42.75 158.859375 -44.5 166.578125 -48 C 174.296875 -51.5 179.835938 -55.921875 183.203125 -61.265625 C 186.566406 -66.609375 188.25 -72.050781 188.25 -77.59375 C 188.25 -84.851562 186.367188 -90.691406 182.609375 -95.109375 C 178.847656 -99.535156 173.269531 -103.363281 165.875 -106.59375 C 158.488281 -109.832031 149.453125 -113.164062 138.765625 -116.59375 L 95.8125 -128.265625 C 71.257812 -135.660156 52.484375 -145.988281 39.484375 -159.25 C 26.492188 -172.507812 20 -189.832031 20 -211.21875 C 20 -228.632812 24.515625 -243.28125 33.546875 -255.15625 C 42.585938 -267.03125 55.351562 -276.003906 71.84375 -282.078125 C 88.34375 -288.148438 107.8125 -291.1875 130.25 -291.1875 C 161.257812 -291.1875 186.398438 -284.488281 205.671875 -271.09375 C 224.941406 -257.695312 238.601562 -238.195312 246.65625 -212.59375 L 197.5625 -195.78125 L 195.96875 -196.171875 C 193.726562 -205.804688 190.195312 -213.59375 185.375 -219.53125 C 180.5625 -225.46875 175.085938 -230.019531 168.953125 -233.1875 C 162.816406 -236.351562 156.515625 -238.492188 150.046875 -239.609375 C 143.578125 -240.734375 137.570312 -241.296875 132.03125 -241.296875 C 119.894531 -241.296875 110.03125 -239.8125 102.4375 -236.84375 C 94.851562 -233.875 89.34375 -230.082031 85.90625 -225.46875 C 82.476562 -220.851562 80.765625 -216.035156 80.765625 -211.015625 C 80.765625 -203.890625 82.644531 -198.148438 86.40625 -193.796875 C 90.164062 -189.441406 95.082031 -185.910156 101.15625 -183.203125 C 107.226562 -180.492188 113.691406 -178.019531 120.546875 -175.78125 L 167.671875 -163.515625 C 181.128906 -159.285156 193.070312 -154.726562 203.5 -149.84375 C 213.925781 -144.96875 222.664062 -139.328125 229.71875 -132.921875 C 236.78125 -126.523438 242.125 -119.003906 245.75 -110.359375 C 249.382812 -101.710938 251.203125 -91.453125 251.203125 -79.578125 C 251.203125 -66.910156 248.59375 -55.226562 243.375 -44.53125 C 238.164062 -33.84375 230.613281 -24.601562 220.71875 -16.8125 C 210.820312 -9.03125 198.78125 -3 184.59375 1.28125 C 170.40625 5.570312 154.335938 7.71875 136.390625 7.71875 Z M 136.390625 7.71875 "/></g></g></g></g></g><g transform="matrix(1, 0, 0, 1, 196, 301)"><g clip-path="url(#19ff92dfaa)"><g fill="#ffca28" fill-opacity="1"><g transform="translate(0.914775, 416.541479)"><g><path d="M 93.414062 25.226562 C 149.78125 25.226562 210.085938 -33.109375 250.6875 -94.203125 C 250.6875 -99.722656 243.589844 -104.453125 239.648438 -104.453125 C 199.050781 -46.90625 145.445312 -6.699219 95.386719 -6.699219 C 67.796875 -6.699219 55.96875 -19.707031 55.96875 -43.359375 C 55.96875 -119.429688 148.203125 -228.613281 195.109375 -228.613281 C 205.355469 -228.613281 211.664062 -222.699219 211.664062 -211.664062 C 211.664062 -188.015625 181.707031 -148.597656 160.816406 -136.773438 C 166.335938 -133.226562 172.640625 -131.648438 179.34375 -131.648438 C 209.300781 -131.648438 243.589844 -165.941406 243.589844 -199.445312 C 243.589844 -232.949219 209.691406 -252.261719 180.917969 -252.261719 C 109.96875 -252.261719 16.160156 -133.621094 16.160156 -54 C 16.160156 -6.699219 51.636719 25.226562 93.414062 25.226562 Z M 93.414062 25.226562 "/></g></g></g></g></g></svg>